<svg xmlns="http://www.w3.org/2000/svg" viewBox="0 0 600 600"><defs><filter id="bl" x="-30%" y="-30%" width="160%" height="160%"><feGaussianBlur stdDeviation="12"/></filter><filter id="bl2"><feGaussianBlur stdDeviation="2"/></filter></defs>
<ellipse cx="300" cy="528" rx="160" ry="22" fill="#2a2a04" opacity=".32" filter="url(#bl)"/>
<defs><linearGradient id="ll" x1="0" y1="0" x2="0" y2="1"><stop offset="0" stop-color="#FFF08A"/><stop offset="1" stop-color="#F2C93A"/></linearGradient>
<linearGradient id="gl2" x1="0" x2="1"><stop offset="0" stop-color="#fff" stop-opacity=".5"/><stop offset=".25" stop-color="#fff" stop-opacity=".05"/><stop offset=".85" stop-color="#fff" stop-opacity=".1"/><stop offset="1" stop-color="#fff" stop-opacity=".4"/></linearGradient></defs>
<path d="M190 130 L410 130 L388 510 Q386 530 366 530 L234 530 Q214 530 212 510Z" fill="#fff" opacity=".14" stroke="#fff" stroke-opacity=".55" stroke-width="4"/>
<path d="M197 180 L403 180 L386 506 Q384 522 366 522 L234 522 Q216 522 214 506Z" fill="url(#ll)"/>
<circle cx="292" cy="357" r="4.8" fill="#fff" opacity=".7"/><circle cx="294" cy="342" r="3.8" fill="#fff" opacity=".7"/><circle cx="246" cy="343" r="3.9" fill="#fff" opacity=".7"/><circle cx="350" cy="226" r="2.9" fill="#fff" opacity=".7"/><circle cx="230" cy="427" r="4.1" fill="#fff" opacity=".7"/><circle cx="222" cy="475" r="4.9" fill="#fff" opacity=".7"/><circle cx="326" cy="372" r="2.5" fill="#fff" opacity=".7"/><circle cx="218" cy="348" r="2.2" fill="#fff" opacity=".7"/><circle cx="247" cy="268" r="2.1" fill="#fff" opacity=".7"/><circle cx="294" cy="323" r="4.5" fill="#fff" opacity=".7"/><circle cx="303" cy="379" r="3.5" fill="#fff" opacity=".7"/><circle cx="328" cy="328" r="2.8" fill="#fff" opacity=".7"/><circle cx="385" cy="479" r="4.5" fill="#fff" opacity=".7"/><circle cx="335" cy="288" r="2.7" fill="#fff" opacity=".7"/><circle cx="264" cy="220" r="4.3" fill="#fff" opacity=".7"/><circle cx="283" cy="437" r="3.2" fill="#fff" opacity=".7"/><circle cx="378" cy="437" r="2.0" fill="#fff" opacity=".7"/><circle cx="251" cy="455" r="3.4" fill="#fff" opacity=".7"/><circle cx="382" cy="311" r="2.2" fill="#fff" opacity=".7"/><circle cx="322" cy="418" r="2.8" fill="#fff" opacity=".7"/><circle cx="230" cy="293" r="4.9" fill="#fff" opacity=".7"/><circle cx="344" cy="233" r="2.7" fill="#fff" opacity=".7"/><circle cx="232" cy="217" r="4.4" fill="#fff" opacity=".7"/><circle cx="245" cy="357" r="3.3" fill="#fff" opacity=".7"/><circle cx="247" cy="405" r="2.4" fill="#fff" opacity=".7"/><circle cx="324" cy="233" r="3.3" fill="#fff" opacity=".7"/><g transform="translate(228 230) rotate(-10)"><rect width="62" height="62" rx="12" fill="#fff" opacity=".28" stroke="#fff" stroke-opacity=".7" stroke-width="2.5"/><path d="M10 14 L38 12" stroke="#fff" stroke-width="3" opacity=".7" stroke-linecap="round"/></g><g transform="translate(305 290) rotate(12)"><rect width="66" height="66" rx="12" fill="#fff" opacity=".28" stroke="#fff" stroke-opacity=".7" stroke-width="2.5"/><path d="M10 14 L42 12" stroke="#fff" stroke-width="3" opacity=".7" stroke-linecap="round"/></g><g transform="translate(250 380) rotate(6)"><rect width="60" height="60" rx="12" fill="#fff" opacity=".28" stroke="#fff" stroke-opacity=".7" stroke-width="2.5"/><path d="M10 14 L36 12" stroke="#fff" stroke-width="3" opacity=".7" stroke-linecap="round"/></g>
<path d="M190 130 L410 130 L388 510 Q386 530 366 530 L234 530 Q214 530 212 510Z" fill="url(#gl2)"/>
<path d="M222 160 L236 500" stroke="#fff" stroke-width="9" stroke-linecap="round" opacity=".5"/>
<path d="M0 0 C14 -20 40 -20 54 0 C40 20 14 20 0 0Z" fill="#53B04A" stroke="#2F7D33" stroke-width="2" transform="translate(300 118) rotate(-70)"/><path d="M0 0 C14 -20 40 -20 54 0 C40 20 14 20 0 0Z" fill="#53B04A" stroke="#2F7D33" stroke-width="2" transform="translate(330 112) rotate(-30)"/><path d="M0 0 C14 -20 40 -20 54 0 C40 20 14 20 0 0Z" fill="#53B04A" stroke="#2F7D33" stroke-width="2" transform="translate(276 120) rotate(-115)"/>
<g transform="translate(398 140) rotate(-18)"><circle r="62" fill="#F7D84A" stroke="#EBBE22" stroke-width="5"/><circle r="50" fill="#FFF3A0"/>
<path d="M0 0 L48 0" stroke="#F7D84A" stroke-width="4"/><path d="M0 0 L34 34" stroke="#F7D84A" stroke-width="4"/><path d="M0 0 L0 48" stroke="#F7D84A" stroke-width="4"/><path d="M0 0 L-34 34" stroke="#F7D84A" stroke-width="4"/><path d="M0 0 L-48 0" stroke="#F7D84A" stroke-width="4"/><path d="M0 0 L-34 -34" stroke="#F7D84A" stroke-width="4"/><path d="M0 0 L-0 -48" stroke="#F7D84A" stroke-width="4"/><path d="M0 0 L34 -34" stroke="#F7D84A" stroke-width="4"/>
<path d="M0 0 L44 0 A44 44 0 0 1 31 31Z" fill="#FFE86B" opacity=".7"/><path d="M0 0 L0 44 A44 44 0 0 1 -31 31Z" fill="#FFE86B" opacity=".7"/><path d="M0 0 L-44 0 A44 44 0 0 1 -31 -31Z" fill="#FFE86B" opacity=".7"/><path d="M0 0 L-0 -44 A44 44 0 0 1 31 -31Z" fill="#FFE86B" opacity=".7"/></g>
<g transform="rotate(-10 320 130)"><rect x="318" y="30" width="16" height="320" rx="8" fill="#fff"/><path d="M318 55h16M318 95h16M318 135h16M318 175h16M318 215h16" stroke="#38A84A" stroke-width="9"/></g></svg>