<svg xmlns="http://www.w3.org/2000/svg" viewBox="0 0 600 600"><defs><filter id="bl" x="-30%" y="-30%" width="160%" height="160%"><feGaussianBlur stdDeviation="12"/></filter><filter id="bl2"><feGaussianBlur stdDeviation="2"/></filter></defs>
<ellipse cx="300" cy="500" rx="250" ry="40" fill="#2a1204" opacity=".35" filter="url(#bl)"/>
<ellipse cx="300" cy="390" rx="262" ry="150" fill="#F4EFE6"/><ellipse cx="300" cy="386" rx="236" ry="132" fill="#fff"/>
<g transform="translate(210 330) rotate(-14)"><path d="M60 -10 L100 -14 Q112 -14 112 -4 Q112 8 100 8 L60 10Z" fill="#F3E7CC" stroke="#CDBA94" stroke-width="2.5"/><circle cx="110" cy="-8" r="9" fill="#F3E7CC" stroke="#CDBA94" stroke-width="2.5"/><circle cx="110" cy="6" r="9" fill="#F3E7CC" stroke="#CDBA94" stroke-width="2.5"/><ellipse cx="6" cy="6" rx="64" ry="42" fill="#3a1204" opacity=".3"/><path d="M-60 0 C-60 -42 20 -52 66 -22 C80 -10 80 14 64 26 C20 52 -60 44 -60 0Z" fill="#B53A12" stroke="#7E2208" stroke-width="2.5"/><path d="M-48 -4 C-44 -30 10 -42 52 -22" fill="none" stroke="#FFB47A" stroke-width="7" stroke-linecap="round" opacity=".6"/><path d="M-30 18 C0 32 30 30 52 16" fill="none" stroke="#6B1C06" stroke-width="5" stroke-linecap="round" opacity=".5"/><ellipse cx="-33" cy="-17" rx="2.6" ry="1.5" fill="#FFF3D0"/><ellipse cx="-5" cy="8" rx="2.6" ry="1.5" fill="#FFF3D0"/><ellipse cx="-24" cy="-17" rx="2.6" ry="1.5" fill="#FFF3D0"/><ellipse cx="-17" cy="11" rx="2.6" ry="1.5" fill="#FFF3D0"/><ellipse cx="-23" cy="11" rx="2.6" ry="1.5" fill="#FFF3D0"/><ellipse cx="15" cy="-16" rx="2.6" ry="1.5" fill="#FFF3D0"/><ellipse cx="6" cy="-2" rx="2.6" ry="1.5" fill="#FFF3D0"/><ellipse cx="-3" cy="22" rx="2.6" ry="1.5" fill="#FFF3D0"/><ellipse cx="-27" cy="-21" rx="2.6" ry="1.5" fill="#FFF3D0"/><ellipse cx="36" cy="-4" rx="2.6" ry="1.5" fill="#FFF3D0"/><ellipse cx="-19" cy="-7" rx="2.6" ry="1.5" fill="#FFF3D0"/><ellipse cx="-7" cy="20" rx="2.6" ry="1.5" fill="#FFF3D0"/></g><g transform="translate(310 420) rotate(8)"><path d="M60 -10 L100 -14 Q112 -14 112 -4 Q112 8 100 8 L60 10Z" fill="#F3E7CC" stroke="#CDBA94" stroke-width="2.5"/><circle cx="110" cy="-8" r="9" fill="#F3E7CC" stroke="#CDBA94" stroke-width="2.5"/><circle cx="110" cy="6" r="9" fill="#F3E7CC" stroke="#CDBA94" stroke-width="2.5"/><ellipse cx="6" cy="6" rx="64" ry="42" fill="#3a1204" opacity=".3"/><path d="M-60 0 C-60 -42 20 -52 66 -22 C80 -10 80 14 64 26 C20 52 -60 44 -60 0Z" fill="#B53A12" stroke="#7E2208" stroke-width="2.5"/><path d="M-48 -4 C-44 -30 10 -42 52 -22" fill="none" stroke="#FFB47A" stroke-width="7" stroke-linecap="round" opacity=".6"/><path d="M-30 18 C0 32 30 30 52 16" fill="none" stroke="#6B1C06" stroke-width="5" stroke-linecap="round" opacity=".5"/><ellipse cx="-18" cy="-12" rx="2.6" ry="1.5" fill="#FFF3D0"/><ellipse cx="9" cy="2" rx="2.6" ry="1.5" fill="#FFF3D0"/><ellipse cx="37" cy="15" rx="2.6" ry="1.5" fill="#FFF3D0"/><ellipse cx="-8" cy="-13" rx="2.6" ry="1.5" fill="#FFF3D0"/><ellipse cx="28" cy="22" rx="2.6" ry="1.5" fill="#FFF3D0"/><ellipse cx="-32" cy="10" rx="2.6" ry="1.5" fill="#FFF3D0"/><ellipse cx="30" cy="7" rx="2.6" ry="1.5" fill="#FFF3D0"/><ellipse cx="-18" cy="13" rx="2.6" ry="1.5" fill="#FFF3D0"/><ellipse cx="20" cy="-13" rx="2.6" ry="1.5" fill="#FFF3D0"/><ellipse cx="13" cy="-12" rx="2.6" ry="1.5" fill="#FFF3D0"/><ellipse cx="-31" cy="-7" rx="2.6" ry="1.5" fill="#FFF3D0"/><ellipse cx="-9" cy="-5" rx="2.6" ry="1.5" fill="#FFF3D0"/></g><g transform="translate(260 250) rotate(-4)"><path d="M60 -10 L100 -14 Q112 -14 112 -4 Q112 8 100 8 L60 10Z" fill="#F3E7CC" stroke="#CDBA94" stroke-width="2.5"/><circle cx="110" cy="-8" r="9" fill="#F3E7CC" stroke="#CDBA94" stroke-width="2.5"/><circle cx="110" cy="6" r="9" fill="#F3E7CC" stroke="#CDBA94" stroke-width="2.5"/><ellipse cx="6" cy="6" rx="64" ry="42" fill="#3a1204" opacity=".3"/><path d="M-60 0 C-60 -42 20 -52 66 -22 C80 -10 80 14 64 26 C20 52 -60 44 -60 0Z" fill="#B53A12" stroke="#7E2208" stroke-width="2.5"/><path d="M-48 -4 C-44 -30 10 -42 52 -22" fill="none" stroke="#FFB47A" stroke-width="7" stroke-linecap="round" opacity=".6"/><path d="M-30 18 C0 32 30 30 52 16" fill="none" stroke="#6B1C06" stroke-width="5" stroke-linecap="round" opacity=".5"/><ellipse cx="14" cy="15" rx="2.6" ry="1.5" fill="#FFF3D0"/><ellipse cx="37" cy="21" rx="2.6" ry="1.5" fill="#FFF3D0"/><ellipse cx="40" cy="13" rx="2.6" ry="1.5" fill="#FFF3D0"/><ellipse cx="-11" cy="-14" rx="2.6" ry="1.5" fill="#FFF3D0"/><ellipse cx="12" cy="2" rx="2.6" ry="1.5" fill="#FFF3D0"/><ellipse cx="16" cy="-18" rx="2.6" ry="1.5" fill="#FFF3D0"/><ellipse cx="-20" cy="19" rx="2.6" ry="1.5" fill="#FFF3D0"/><ellipse cx="11" cy="9" rx="2.6" ry="1.5" fill="#FFF3D0"/><ellipse cx="-27" cy="-4" rx="2.6" ry="1.5" fill="#FFF3D0"/><ellipse cx="33" cy="7" rx="2.6" ry="1.5" fill="#FFF3D0"/><ellipse cx="39" cy="-13" rx="2.6" ry="1.5" fill="#FFF3D0"/><ellipse cx="-0" cy="13" rx="2.6" ry="1.5" fill="#FFF3D0"/></g><g transform="translate(370 310) rotate(12)"><path d="M60 -10 L100 -14 Q112 -14 112 -4 Q112 8 100 8 L60 10Z" fill="#F3E7CC" stroke="#CDBA94" stroke-width="2.5"/><circle cx="110" cy="-8" r="9" fill="#F3E7CC" stroke="#CDBA94" stroke-width="2.5"/><circle cx="110" cy="6" r="9" fill="#F3E7CC" stroke="#CDBA94" stroke-width="2.5"/><ellipse cx="6" cy="6" rx="64" ry="42" fill="#3a1204" opacity=".3"/><path d="M-60 0 C-60 -42 20 -52 66 -22 C80 -10 80 14 64 26 C20 52 -60 44 -60 0Z" fill="#B53A12" stroke="#7E2208" stroke-width="2.5"/><path d="M-48 -4 C-44 -30 10 -42 52 -22" fill="none" stroke="#FFB47A" stroke-width="7" stroke-linecap="round" opacity=".6"/><path d="M-30 18 C0 32 30 30 52 16" fill="none" stroke="#6B1C06" stroke-width="5" stroke-linecap="round" opacity=".5"/><ellipse cx="-1" cy="13" rx="2.6" ry="1.5" fill="#FFF3D0"/><ellipse cx="8" cy="-17" rx="2.6" ry="1.5" fill="#FFF3D0"/><ellipse cx="-27" cy="21" rx="2.6" ry="1.5" fill="#FFF3D0"/><ellipse cx="-25" cy="-13" rx="2.6" ry="1.5" fill="#FFF3D0"/><ellipse cx="-9" cy="9" rx="2.6" ry="1.5" fill="#FFF3D0"/><ellipse cx="29" cy="-1" rx="2.6" ry="1.5" fill="#FFF3D0"/><ellipse cx="3" cy="13" rx="2.6" ry="1.5" fill="#FFF3D0"/><ellipse cx="-13" cy="-6" rx="2.6" ry="1.5" fill="#FFF3D0"/><ellipse cx="11" cy="6" rx="2.6" ry="1.5" fill="#FFF3D0"/><ellipse cx="-31" cy="-17" rx="2.6" ry="1.5" fill="#FFF3D0"/><ellipse cx="-24" cy="10" rx="2.6" ry="1.5" fill="#FFF3D0"/><ellipse cx="17" cy="21" rx="2.6" ry="1.5" fill="#FFF3D0"/></g></svg>